<svg width="97" height="38" viewBox="0 0 97 38" fill="none" xmlns="http://www.w3.org/2000/svg">
<g filter="url(#filter0_dd_38_1025)">
<rect x="3" y="2" width="32" height="32" rx="8" fill="white"/>
<rect x="3" y="2" width="32" height="32" rx="8" fill="#26C474"/>
<path d="M23.3396 12.1856C23.3396 11.7296 23.5006 11.3473 23.8225 11.0389C24.1444 10.717 24.5333 10.556 24.9894 10.556C25.432 10.556 25.8142 10.717 26.1361 11.0389C26.458 11.3473 26.619 11.7296 26.619 12.1856C26.619 12.6283 26.458 13.0105 26.1361 13.3324C25.8142 13.6543 25.432 13.8153 24.9894 13.8153C24.5333 13.8153 24.1444 13.6543 23.8225 13.3324C23.5006 13.0105 23.3396 12.6283 23.3396 12.1856ZM26.3373 25.444H23.6213V15.0626H26.3373V25.444Z" fill="white"/>
<path d="M17.6782 14.8614C18.8317 14.8614 19.7572 15.2638 20.4546 16.0686C21.1655 16.8733 21.5209 17.8994 21.5209 19.1468V25.444H18.8049V19.6296C18.8049 18.959 18.5903 18.4091 18.1611 17.9799C17.7319 17.5507 17.1954 17.3361 16.5516 17.3361C15.8273 17.3361 15.2371 17.5507 14.7811 17.9799C14.3251 18.4091 14.097 18.959 14.097 19.6296V25.444H11.381V10.556H14.097V17.7183C14.3653 16.8331 14.8146 16.1356 15.445 15.626C16.0888 15.1163 16.8332 14.8614 17.6782 14.8614Z" fill="white"/>
</g>
<path d="M89.8954 14.0889C91.8687 14.0889 93.4474 14.7852 94.6314 16.1778C95.8305 17.5556 96.2707 19.2 95.952 21.1111H86.8898C87.1023 21.8074 87.4894 22.3704 88.0511 22.8C88.6279 23.2148 89.311 23.4222 90.1003 23.4222C91.4361 23.4222 92.4076 22.8889 93.0147 21.8222L95.5421 22.9333C95.0108 23.8667 94.2595 24.6148 93.288 25.1778C92.3317 25.7259 91.2387 26 90.0092 26C88.218 26 86.7228 25.4296 85.5237 24.2889C84.3245 23.1482 83.7249 21.7333 83.7249 20.0444C83.7249 18.3556 84.3169 16.9407 85.5009 15.8C86.6849 14.6593 88.1497 14.0889 89.8954 14.0889ZM89.8954 16.6667C89.2123 16.6667 88.5975 16.8667 88.0511 17.2667C87.5198 17.6519 87.1479 18.1704 86.9354 18.8222H92.8781C92.6656 18.1704 92.2937 17.6519 91.7624 17.2667C91.2312 16.8667 90.6088 16.6667 89.8954 16.6667Z" fill="#111927"/>
<path d="M76.5432 16.9556H74.1752V14.3111H76.5432V10.9333L79.617 10V14.3111H82.6681V16.9556H79.617V21.5111C79.617 22.5926 80.1711 23.1333 81.2792 23.1333H82.6681V25.7778H81.2792C79.6701 25.7778 78.4786 25.4148 77.7044 24.6889C76.9302 23.9481 76.5432 22.8296 76.5432 21.3333V16.9556Z" fill="#111927"/>
<path d="M68.3526 14.0889C69.8402 14.0889 71.047 14.4667 71.973 15.2222C72.8989 15.9778 73.3619 17.0815 73.3619 18.5333V25.7778H70.288V22.9333C69.6353 24.9778 68.2843 26 66.2351 26C65.2788 26 64.4591 25.6963 63.776 25.0889C63.093 24.4815 62.7514 23.6889 62.7514 22.7111C62.7514 20.563 64.2618 19.3333 67.2825 19.0222L69.1951 18.8444C69.9237 18.8 70.288 18.4963 70.288 17.9333C70.288 17.5185 70.1059 17.1852 69.7416 16.9333C69.3924 16.6815 68.9371 16.5556 68.3754 16.5556C67.7682 16.5556 67.2673 16.7111 66.8727 17.0222C66.4932 17.3185 66.2503 17.7407 66.144 18.2889L63.093 17.6222C63.2599 16.6 63.814 15.7556 64.7551 15.0889C65.6962 14.4222 66.8954 14.0889 68.3526 14.0889ZM67.328 23.6222C68.1325 23.6222 68.8232 23.3556 69.4 22.8222C69.992 22.2889 70.288 21.6741 70.288 20.9778V20.6889C70.1059 20.8519 69.7568 20.963 69.2407 21.0222L67.2597 21.2445C66.8195 21.3037 66.4704 21.4445 66.2123 21.6667C65.9543 21.8741 65.8253 22.1407 65.8253 22.4667C65.8253 22.8074 65.9619 23.0889 66.2351 23.3111C66.5083 23.5185 66.8727 23.6222 67.328 23.6222Z" fill="#111927"/>
<path d="M57.0942 14.0889C58.2782 14.0889 59.2345 14.5333 59.9631 15.4222C60.7069 16.3111 61.0788 17.4445 61.0788 18.8222V25.7778H58.0049V19.3556C58.0049 18.6148 57.8 18.0074 57.3902 17.5333C56.9955 17.0593 56.4946 16.8222 55.8874 16.8222C55.2043 16.8222 54.6427 17.0593 54.2025 17.5333C53.7774 18.0074 53.5649 18.6148 53.5649 19.3556V25.7778H50.4911V19.3556C50.4911 18.6148 50.2862 18.0074 49.8763 17.5333C49.4816 17.0593 48.9883 16.8222 48.3963 16.8222C47.7132 16.8222 47.1516 17.0593 46.7114 17.5333C46.2864 18.0074 46.0738 18.6148 46.0738 19.3556V25.7778H43V14.3111H46.0738V17.0889C46.3774 16.1556 46.8404 15.4222 47.4628 14.8889C48.1003 14.3556 48.8441 14.0889 49.6942 14.0889C50.6049 14.0889 51.3791 14.363 52.0166 14.9111C52.6542 15.4593 53.1019 16.2 53.36 17.1333C53.6484 16.2 54.1266 15.4593 54.7945 14.9111C55.4624 14.363 56.2289 14.0889 57.0942 14.0889Z" fill="#111927"/>
<defs>
<filter id="filter0_dd_38_1025" x="0" y="0" width="38" height="38" filterUnits="userSpaceOnUse" color-interpolation-filters="sRGB">
<feFlood flood-opacity="0" result="BackgroundImageFix"/>
<feColorMatrix in="SourceAlpha" type="matrix" values="0 0 0 0 0 0 0 0 0 0 0 0 0 0 0 0 0 0 127 0" result="hardAlpha"/>
<feOffset dy="1"/>
<feGaussianBlur stdDeviation="1"/>
<feColorMatrix type="matrix" values="0 0 0 0 0.0627451 0 0 0 0 0.0941176 0 0 0 0 0.156863 0 0 0 0.06 0"/>
<feBlend mode="normal" in2="BackgroundImageFix" result="effect1_dropShadow_38_1025"/>
<feColorMatrix in="SourceAlpha" type="matrix" values="0 0 0 0 0 0 0 0 0 0 0 0 0 0 0 0 0 0 127 0" result="hardAlpha"/>
<feOffset dy="1"/>
<feGaussianBlur stdDeviation="1.5"/>
<feColorMatrix type="matrix" values="0 0 0 0 0.0627451 0 0 0 0 0.0941176 0 0 0 0 0.156863 0 0 0 0.1 0"/>
<feBlend mode="normal" in2="effect1_dropShadow_38_1025" result="effect2_dropShadow_38_1025"/>
<feBlend mode="normal" in="SourceGraphic" in2="effect2_dropShadow_38_1025" result="shape"/>
</filter>
</defs>
</svg>
