<svg width="40" height="40" viewBox="0 0 40 40" fill="none" xmlns="http://www.w3.org/2000/svg">
<path d="M12.3967 25.0964C12.435 24.7518 12.4541 24.5795 12.5062 24.4185C12.5525 24.2756 12.6178 24.1396 12.7005 24.0142C12.7937 23.8729 12.9163 23.7504 13.1614 23.5052L24.1667 12.5C25.0871 11.5795 26.5795 11.5795 27.5 12.5C28.4205 13.4205 28.4205 14.9128 27.5 15.8333L16.4948 26.8386C16.2496 27.0837 16.127 27.2063 15.9857 27.2995C15.8604 27.3821 15.7244 27.4475 15.5815 27.4937C15.4205 27.5459 15.2482 27.565 14.9036 27.6033L12.0833 27.9167L12.3967 25.0964Z" stroke="#475467" stroke-width="1.66667" stroke-linecap="round" stroke-linejoin="round"/>
</svg>
